<svg width="571" height="241" viewBox="0 0 571 241" fill="none" xmlns="http://www.w3.org/2000/svg">
<g clip-path="url(#clip0_9_4)">
<rect width="571" height="241" rx="50" fill="white"/>
<rect x="0.5" y="0.5" width="570" height="240" rx="49.5" fill="#1D1B1B" stroke="#1D1B1B"/>
<path d="M164.863 122.594V139H160.673V102.636H164.863V115.989H165.219C165.858 114.58 166.817 113.461 168.095 112.633C169.385 111.792 171.102 111.372 173.244 111.372C175.103 111.372 176.73 111.745 178.127 112.491C179.524 113.225 180.607 114.355 181.376 115.882C182.157 117.397 182.548 119.327 182.548 121.67V139H178.358V121.955C178.358 119.788 177.796 118.113 176.671 116.93C175.558 115.734 174.014 115.136 172.037 115.136C170.664 115.136 169.433 115.426 168.344 116.006C167.266 116.586 166.414 117.433 165.787 118.545C165.171 119.658 164.863 121.008 164.863 122.594ZM201.649 139.568C199.021 139.568 196.754 138.988 194.848 137.828C192.954 136.656 191.493 135.023 190.463 132.928C189.445 130.821 188.936 128.37 188.936 125.577C188.936 122.783 189.445 120.321 190.463 118.19C191.493 116.048 192.925 114.379 194.76 113.183C196.606 111.976 198.761 111.372 201.223 111.372C202.643 111.372 204.046 111.609 205.431 112.082C206.816 112.556 208.076 113.325 209.213 114.391C210.349 115.444 211.255 116.841 211.929 118.581C212.604 120.321 212.941 122.464 212.941 125.009V126.784H191.919V123.162H208.68C208.68 121.623 208.372 120.25 207.757 119.043C207.153 117.835 206.289 116.882 205.164 116.184C204.052 115.486 202.738 115.136 201.223 115.136C199.554 115.136 198.109 115.551 196.89 116.379C195.683 117.196 194.754 118.261 194.103 119.575C193.452 120.889 193.126 122.298 193.126 123.801V126.216C193.126 128.276 193.481 130.022 194.191 131.454C194.913 132.874 195.914 133.957 197.192 134.703C198.471 135.437 199.956 135.804 201.649 135.804C202.75 135.804 203.744 135.65 204.632 135.342C205.531 135.023 206.307 134.549 206.958 133.922C207.609 133.283 208.112 132.49 208.467 131.543L212.515 132.679C212.089 134.052 211.373 135.259 210.367 136.301C209.361 137.331 208.118 138.136 206.638 138.716C205.158 139.284 203.495 139.568 201.649 139.568ZM223.506 102.636V139H219.316V102.636H223.506ZM235.371 102.636V139H231.181V102.636H235.371ZM254.126 139.568C251.664 139.568 249.503 138.982 247.645 137.81C245.798 136.638 244.354 134.999 243.312 132.892C242.283 130.785 241.768 128.323 241.768 125.506C241.768 122.665 242.283 120.185 243.312 118.066C244.354 115.947 245.798 114.302 247.645 113.13C249.503 111.958 251.664 111.372 254.126 111.372C256.588 111.372 258.742 111.958 260.589 113.13C262.447 114.302 263.891 115.947 264.921 118.066C265.963 120.185 266.484 122.665 266.484 125.506C266.484 128.323 265.963 130.785 264.921 132.892C263.891 134.999 262.447 136.638 260.589 137.81C258.742 138.982 256.588 139.568 254.126 139.568ZM254.126 135.804C255.996 135.804 257.535 135.325 258.742 134.366C259.95 133.407 260.843 132.146 261.423 130.584C262.003 129.021 262.293 127.329 262.293 125.506C262.293 123.683 262.003 121.984 261.423 120.41C260.843 118.835 259.95 117.563 258.742 116.592C257.535 115.622 255.996 115.136 254.126 115.136C252.255 115.136 250.717 115.622 249.509 116.592C248.302 117.563 247.408 118.835 246.828 120.41C246.248 121.984 245.958 123.683 245.958 125.506C245.958 127.329 246.248 129.021 246.828 130.584C247.408 132.146 248.302 133.407 249.509 134.366C250.717 135.325 252.255 135.804 254.126 135.804ZM293.122 139L284.812 111.727H289.215L295.11 132.608H295.394L301.218 111.727H305.693L311.445 132.537H311.73L317.624 111.727H322.028L313.718 139H309.599L303.633 118.048H303.207L297.241 139H293.122ZM337.719 139.568C335.257 139.568 333.097 138.982 331.239 137.81C329.392 136.638 327.948 134.999 326.906 132.892C325.876 130.785 325.362 128.323 325.362 125.506C325.362 122.665 325.876 120.185 326.906 118.066C327.948 115.947 329.392 114.302 331.239 113.13C333.097 111.958 335.257 111.372 337.719 111.372C340.182 111.372 342.336 111.958 344.183 113.13C346.041 114.302 347.485 115.947 348.515 118.066C349.557 120.185 350.077 122.665 350.077 125.506C350.077 128.323 349.557 130.785 348.515 132.892C347.485 134.999 346.041 136.638 344.183 137.81C342.336 138.982 340.182 139.568 337.719 139.568ZM337.719 135.804C339.59 135.804 341.129 135.325 342.336 134.366C343.543 133.407 344.437 132.146 345.017 130.584C345.597 129.021 345.887 127.329 345.887 125.506C345.887 123.683 345.597 121.984 345.017 120.41C344.437 118.835 343.543 117.563 342.336 116.592C341.129 115.622 339.59 115.136 337.719 115.136C335.849 115.136 334.31 115.622 333.103 116.592C331.896 117.563 331.002 118.835 330.422 120.41C329.842 121.984 329.552 123.683 329.552 125.506C329.552 127.329 329.842 129.021 330.422 130.584C331.002 132.146 331.896 133.407 333.103 134.366C334.31 135.325 335.849 135.804 337.719 135.804ZM356.474 139V111.727H360.522V115.847H360.806C361.303 114.497 362.203 113.402 363.505 112.562C364.807 111.721 366.275 111.301 367.909 111.301C368.216 111.301 368.601 111.307 369.063 111.319C369.524 111.331 369.874 111.348 370.11 111.372V115.634C369.968 115.598 369.643 115.545 369.134 115.474C368.637 115.391 368.11 115.349 367.553 115.349C366.228 115.349 365.044 115.628 364.002 116.184C362.972 116.728 362.156 117.486 361.552 118.457C360.96 119.415 360.664 120.51 360.664 121.741V139H356.474ZM379.268 102.636V139H375.077V102.636H379.268ZM397.241 139.568C394.968 139.568 392.962 138.994 391.222 137.846C389.482 136.686 388.12 135.052 387.138 132.945C386.155 130.826 385.664 128.323 385.664 125.435C385.664 122.57 386.155 120.084 387.138 117.977C388.12 115.87 389.488 114.243 391.24 113.094C392.991 111.946 395.016 111.372 397.312 111.372C399.088 111.372 400.49 111.668 401.52 112.26C402.562 112.84 403.355 113.503 403.899 114.249C404.456 114.982 404.888 115.586 405.195 116.06H405.551V102.636H409.741V139H405.693V134.81H405.195C404.888 135.307 404.45 135.934 403.882 136.692C403.313 137.437 402.503 138.106 401.449 138.698C400.396 139.278 398.993 139.568 397.241 139.568ZM397.809 135.804C399.49 135.804 400.91 135.366 402.07 134.49C403.231 133.602 404.112 132.377 404.716 130.815C405.32 129.24 405.622 127.423 405.622 125.364C405.622 123.328 405.326 121.546 404.734 120.019C404.142 118.48 403.266 117.285 402.106 116.433C400.946 115.568 399.514 115.136 397.809 115.136C396.034 115.136 394.554 115.592 393.37 116.504C392.198 117.403 391.316 118.628 390.725 120.179C390.145 121.718 389.855 123.446 389.855 125.364C389.855 127.305 390.151 129.069 390.742 130.655C391.346 132.229 392.234 133.484 393.406 134.419C394.589 135.342 396.057 135.804 397.809 135.804Z" fill="white"/>
</g>
<rect x="1" y="1" width="569" height="239" rx="49" stroke="white" stroke-width="2"/>
<defs>
<clipPath id="clip0_9_4">
<rect width="571" height="241" rx="50" fill="white"/>
</clipPath>
</defs>
</svg>
