<svg width="408" height="622" viewBox="0 0 408 622" fill="none" xmlns="http://www.w3.org/2000/svg">
<path d="M0 82.1711C0 36.7893 36.7893 0 82.1711 0V0C84.8353 0 87.2822 1.46954 88.5339 3.82132L103 31L302.749 412.969C307.451 421.959 321.006 419.042 321.594 408.914L334.5 186.5V66.9842C334.5 30.0411 364.415 0.0750056 401.358 0.0114308V0.0114308C405.024 0.00512093 408 2.97575 408 6.6424V581.067C408 603.673 389.673 622 367.067 622V622C321.119 622 279.175 595.857 258.938 554.606L134.978 301.921C130.312 292.411 116 295.732 116 306.326V566.01C116 595.281 92.2711 619.01 63 619.01H10C4.47715 619.01 0 614.533 0 609.01V82.1711Z" fill="url(#paint0_linear_10_8)"/>
<defs>
<linearGradient id="paint0_linear_10_8" x1="219" y1="10.5" x2="219" y2="632.5" gradientUnits="userSpaceOnUse">
<stop/>
<stop offset="1" stop-color="#757778"/>
</linearGradient>
</defs>
</svg>
